<?xml version="1.0" standalone="no"?>
<!DOCTYPE svg PUBLIC "-//W3C//DTD SVG 20010904//EN"
 "http://www.w3.org/TR/2001/REC-SVG-20010904/DTD/svg10.dtd">
<svg version="1.0" xmlns="http://www.w3.org/2000/svg"
 width="280.000000pt" height="280.000000pt" viewBox="0 0 280.000000 280.000000"
 preserveAspectRatio="xMidYMid meet">
<metadata>
Created by potrace 1.11, written by Peter Selinger 2001-2013
</metadata>
<g transform="translate(0.000000,280.000000) scale(0.100000,-0.100000)"
fill="#000000" stroke="none">
<path d="M1279 2797 c-2 -3 -31 -7 -64 -11 -177 -18 -402 -100 -574 -210 -337
-216 -565 -573 -628 -981 -9 -63 -10 -325 -1 -385 72 -466 344 -847 753 -1057
108 -55 266 -110 370 -129 167 -30 404 -27 549 5 121 28 253 73 324 112 29 16
54 27 55 26 5 -3 135 82 197 129 271 206 462 529 525 884 11 63 14 334 4 395
-6 33 -11 71 -13 85 -4 31 -43 178 -55 205 -5 11 -26 60 -47 109 -21 49 -47
103 -58 120 -12 17 -27 43 -35 58 -49 95 -222 278 -358 379 -136 101 -376 210
-513 234 -19 3 -55 11 -80 17 -44 10 -342 22 -351 15z"/>
</g>
</svg>
